<mxfile host="app.diagrams.net" agent="Mozilla/5.0 (Windows NT 10.0; Win64; x64) AppleWebKit/537.36 (KHTML, like Gecko) Chrome/140.0.0.0 Safari/537.36" version="28.2.1">
  <diagram name="第 1 页" id="brHD71B619CdzZFLTjKk">
    <mxGraphModel dx="1426" dy="743" grid="1" gridSize="10" guides="1" tooltips="1" connect="1" arrows="1" fold="1" page="1" pageScale="1" pageWidth="827" pageHeight="1169" math="0" shadow="0">
      <root>
        <mxCell id="0" />
        <mxCell id="1" parent="0" />
        <mxCell id="GnoUhLXs02nZMthtGSBN-1" value="内核内存" style="rounded=0;whiteSpace=wrap;html=1;fillColor=#E6E6E6;" vertex="1" parent="1">
          <mxGeometry x="170" y="194" width="120" height="38" as="geometry" />
        </mxCell>
        <mxCell id="GnoUhLXs02nZMthtGSBN-2" style="edgeStyle=none;curved=1;rounded=0;orthogonalLoop=1;jettySize=auto;html=1;entryX=0;entryY=0.5;entryDx=0;entryDy=0;fontSize=12;startSize=8;endSize=8;" edge="1" parent="1" source="GnoUhLXs02nZMthtGSBN-4" target="GnoUhLXs02nZMthtGSBN-8">
          <mxGeometry relative="1" as="geometry">
            <mxPoint x="444" y="352" as="targetPoint" />
          </mxGeometry>
        </mxCell>
        <mxCell id="GnoUhLXs02nZMthtGSBN-3" value="（1）父进程执行 execve()" style="edgeLabel;html=1;align=center;verticalAlign=middle;resizable=0;points=[];fontSize=12;" vertex="1" connectable="0" parent="GnoUhLXs02nZMthtGSBN-2">
          <mxGeometry x="-0.0755" y="-3" relative="1" as="geometry">
            <mxPoint as="offset" />
          </mxGeometry>
        </mxCell>
        <mxCell id="GnoUhLXs02nZMthtGSBN-4" value="" style="rounded=0;whiteSpace=wrap;html=1;" vertex="1" parent="1">
          <mxGeometry x="170" y="232" width="120" height="240" as="geometry" />
        </mxCell>
        <mxCell id="GnoUhLXs02nZMthtGSBN-5" value="父进程内存" style="rounded=0;whiteSpace=wrap;html=1;fillColor=#D4E1F5;" vertex="1" parent="1">
          <mxGeometry x="170" y="274" width="120" height="38" as="geometry" />
        </mxCell>
        <mxCell id="GnoUhLXs02nZMthtGSBN-6" value="&lt;font style=&quot;font-size: 14px;&quot;&gt;&lt;b&gt;内存&lt;/b&gt;&lt;/font&gt;" style="text;strokeColor=none;fillColor=none;html=1;align=center;verticalAlign=middle;whiteSpace=wrap;rounded=0;fontSize=16;" vertex="1" parent="1">
          <mxGeometry x="202" y="160" width="60" height="30" as="geometry" />
        </mxCell>
        <mxCell id="GnoUhLXs02nZMthtGSBN-7" value="内核内存" style="rounded=0;whiteSpace=wrap;html=1;fillColor=#E6E6E6;" vertex="1" parent="1">
          <mxGeometry x="470" y="194" width="120" height="38" as="geometry" />
        </mxCell>
        <mxCell id="GnoUhLXs02nZMthtGSBN-18" style="edgeStyle=orthogonalEdgeStyle;rounded=0;orthogonalLoop=1;jettySize=auto;html=1;exitX=1;exitY=0.75;exitDx=0;exitDy=0;entryX=0.025;entryY=0.071;entryDx=0;entryDy=0;entryPerimeter=0;" edge="1" parent="1" target="GnoUhLXs02nZMthtGSBN-15">
          <mxGeometry relative="1" as="geometry">
            <mxPoint x="590" y="250" as="sourcePoint" />
            <mxPoint x="780" y="250" as="targetPoint" />
          </mxGeometry>
        </mxCell>
        <mxCell id="GnoUhLXs02nZMthtGSBN-19" value="（3）执行新进程指令" style="edgeLabel;html=1;align=center;verticalAlign=middle;resizable=0;points=[];" vertex="1" connectable="0" parent="GnoUhLXs02nZMthtGSBN-18">
          <mxGeometry x="-0.1579" y="2" relative="1" as="geometry">
            <mxPoint x="13" as="offset" />
          </mxGeometry>
        </mxCell>
        <mxCell id="GnoUhLXs02nZMthtGSBN-8" value="" style="rounded=0;whiteSpace=wrap;html=1;" vertex="1" parent="1">
          <mxGeometry x="470" y="232" width="120" height="240" as="geometry" />
        </mxCell>
        <mxCell id="GnoUhLXs02nZMthtGSBN-9" value="新进程内存" style="rounded=0;whiteSpace=wrap;html=1;fillColor=#D4E1F5;" vertex="1" parent="1">
          <mxGeometry x="470" y="274" width="120" height="38" as="geometry" />
        </mxCell>
        <mxCell id="GnoUhLXs02nZMthtGSBN-10" value="&lt;font style=&quot;font-size: 14px;&quot;&gt;&lt;b&gt;内存&lt;/b&gt;&lt;/font&gt;" style="text;strokeColor=none;fillColor=none;html=1;align=center;verticalAlign=middle;whiteSpace=wrap;rounded=0;fontSize=16;" vertex="1" parent="1">
          <mxGeometry x="502" y="160" width="60" height="30" as="geometry" />
        </mxCell>
        <mxCell id="GnoUhLXs02nZMthtGSBN-11" value="程序可执行文件" style="whiteSpace=wrap;html=1;shape=mxgraph.basic.document" vertex="1" parent="1">
          <mxGeometry x="620" y="414" width="58" height="58" as="geometry" />
        </mxCell>
        <mxCell id="GnoUhLXs02nZMthtGSBN-12" style="edgeStyle=orthogonalEdgeStyle;rounded=0;orthogonalLoop=1;jettySize=auto;html=1;entryX=0.5;entryY=0;entryDx=0;entryDy=0;entryPerimeter=0;curved=1;" edge="1" parent="1" source="GnoUhLXs02nZMthtGSBN-9" target="GnoUhLXs02nZMthtGSBN-11">
          <mxGeometry relative="1" as="geometry" />
        </mxCell>
        <mxCell id="GnoUhLXs02nZMthtGSBN-13" value="（2）加载可执行文件" style="edgeLabel;html=1;align=center;verticalAlign=middle;resizable=0;points=[];" vertex="1" connectable="0" parent="GnoUhLXs02nZMthtGSBN-12">
          <mxGeometry x="0.2111" y="-8" relative="1" as="geometry">
            <mxPoint as="offset" />
          </mxGeometry>
        </mxCell>
        <mxCell id="GnoUhLXs02nZMthtGSBN-14" value="内核内存" style="rounded=0;whiteSpace=wrap;html=1;fillColor=#E6E6E6;" vertex="1" parent="1">
          <mxGeometry x="840" y="194" width="120" height="38" as="geometry" />
        </mxCell>
        <mxCell id="GnoUhLXs02nZMthtGSBN-15" value="" style="rounded=0;whiteSpace=wrap;html=1;" vertex="1" parent="1">
          <mxGeometry x="840" y="232" width="120" height="240" as="geometry" />
        </mxCell>
        <mxCell id="GnoUhLXs02nZMthtGSBN-24" style="edgeStyle=orthogonalEdgeStyle;rounded=0;orthogonalLoop=1;jettySize=auto;html=1;exitX=1;exitY=0.25;exitDx=0;exitDy=0;curved=1;entryX=1;entryY=0.75;entryDx=0;entryDy=0;" edge="1" parent="1" source="GnoUhLXs02nZMthtGSBN-16" target="GnoUhLXs02nZMthtGSBN-16">
          <mxGeometry relative="1" as="geometry">
            <mxPoint x="1090" y="284" as="targetPoint" />
            <Array as="points">
              <mxPoint x="980" y="284" />
              <mxPoint x="980" y="303" />
            </Array>
          </mxGeometry>
        </mxCell>
        <mxCell id="GnoUhLXs02nZMthtGSBN-16" value="新进程内存" style="rounded=0;whiteSpace=wrap;html=1;fillColor=#D4E1F5;" vertex="1" parent="1">
          <mxGeometry x="840" y="274" width="120" height="38" as="geometry" />
        </mxCell>
        <mxCell id="GnoUhLXs02nZMthtGSBN-17" value="&lt;font style=&quot;font-size: 14px;&quot;&gt;&lt;b&gt;内存&lt;/b&gt;&lt;/font&gt;" style="text;strokeColor=none;fillColor=none;html=1;align=center;verticalAlign=middle;whiteSpace=wrap;rounded=0;fontSize=16;" vertex="1" parent="1">
          <mxGeometry x="872" y="160" width="60" height="30" as="geometry" />
        </mxCell>
        <mxCell id="GnoUhLXs02nZMthtGSBN-25" value="（4）从新进程的第一条指令&lt;div&gt;开始执行&lt;/div&gt;" style="edgeLabel;html=1;align=center;verticalAlign=middle;resizable=0;points=[];" vertex="1" connectable="0" parent="1">
          <mxGeometry x="1030" y="360" as="geometry">
            <mxPoint x="22" y="-64" as="offset" />
          </mxGeometry>
        </mxCell>
      </root>
    </mxGraphModel>
  </diagram>
</mxfile>
